#!OML:ASF H:\Not Pregnant\Project 1\Capture day 1\Session 1\non-pregnant.ASF
:FULLY-SPECIFIED
:DEGREES
665
root 8.1771 9.14372 28.5134 -507.599 -115.288 -556.169
lowerback 31.7181 2.55628 0.566201
upperback 2.27817 3.23976 0.019749
thorax -13.9436 1.30113 -1.56318
lowerneck 25.3538 -7.23363 -31.5802
upperneck 5.13754 -20.022 40.304
head 5.40766 -13.0746 22.5397
rclavicle 7.55382e-014 8.34896e-015
rhumerus 30.2326 37.6469 -36.6159
rradius 86.6689
rwrist -4.83331
rhand -10.4435 -3.18164
rfingers 7.12502
rthumb 15.5565 -32.5759
lclavicle 7.55382e-014 8.34896e-015
lhumerus -6.72738 1.44949 63.7883
lradius 70.4074
lwrist 39.6796
lhand -26.2455 -35.3988
lfingers 7.12502
lthumb 0.308619 -5.41924
rfemur -105.951 -23.3356 44.0724
rtibia 120.672
rfoot -14.1632 41.6979
rtoes 36.437
lfemur -98.4669 25.9543 -45.6031
ltibia 125.711
lfoot -33.9657 -20.1159
ltoes -12.643
666
root 8.26837 8.90551 28.5214 -506.959 -114.873 -557.359
lowerback 32.9887 2.67273 0.600031
upperback 2.45876 3.39261 0.17652
thorax -14.2793 1.34745 -1.50774
lowerneck 25.0491 -7.26429 -31.5614
upperneck 4.91149 -19.919 40.3993
head 5.36104 -12.9959 22.5638
rclavicle -2.90226e-014 4.57205e-014
rhumerus 31.9196 37.6332 -34.63
rradius 85.1362
rwrist -4.37122
rhand -9.86601 -2.9695
rfingers 7.12502
rthumb 16.1127 -32.3197
lclavicle -2.90226e-014 4.57205e-014
lhumerus -7.44546 2.05381 64.3097
lradius 68.8047
lwrist 40.0645
lhand -26.6946 -35.9843
lfingers 7.12502
lthumb -0.125123 -6.0046
rfemur -107.836 -23.8743 45.4145
rtibia 122.218
rfoot -14.449 41.6098
rtoes 36.337
lfemur -100.36 26.5626 -46.5559
ltibia 127.719
lfoot -33.9613 -20.3117
ltoes -10.8682
667
root 8.35884 8.66687 28.5329 -506.343 -114.426 -558.587
lowerback 34.3091 2.815 0.634766
upperback 2.62618 3.57228 0.302626
thorax -14.6329 1.4017 -1.50017
lowerneck 24.768 -7.3084 -31.4985
upperneck 4.71292 -19.8386 40.4967
head 5.32367 -12.9312 22.5787
rclavicle -8.74653e-015 1.15295e-014
rhumerus 33.4898 37.5758 -32.7132
rradius 83.5271
rwrist -3.74131
rhand -9.28395 -2.69541
rfingers 7.12502
rthumb 16.6731 -31.9993
lclavicle -8.74653e-015 1.15295e-014
lhumerus -8.21969 2.85831 64.8765
lradius 67.1018
lwrist 40.8251
lhand -27.2052 -36.4841
lfingers 7.12502
lthumb -0.618318 -6.50529
rfemur -109.751 -24.3872 46.7862
rtibia 123.779
rfoot -14.8254 41.2533
rtoes 35.9854
lfemur -102.187 27.2468 -47.5975
ltibia 129.666
lfoot -34.0008 -20.5158
ltoes -8.88804
668
root 8.44828 8.43617 28.5471 -505.893 -113.976 -559.824
lowerback 35.8169 2.97804 0.684932
upperback 2.79316 3.77297 0.391034
thorax -15.0403 1.45728 -1.55823
lowerneck 24.5233 -7.37746 -31.3585
upperneck 4.52258 -19.7879 40.6115
head 5.28873 -12.8859 22.5849
rclavicle -6.20208e-014 -1.39149e-014
rhumerus 34.8814 37.4668 -30.9259
rradius 81.8525
rwrist -3.00026
rhand -8.70583 -2.40262
rfingers 7.12502
rthumb 17.2296 -31.6588
lclavicle -6.20208e-014 -1.39149e-014
lhumerus -9.02294 3.79311 65.4349
lradius 65.289
lwrist 41.759
lhand -27.8327 -36.9109
lfingers 7.12502
lthumb -1.22435 -6.93462
rfemur -111.484 -25.0055 48.143
rtibia 125.293
rfoot -15.3314 40.7023
rtoes 35.3371
lfemur -103.732 28.1266 -48.6577
ltibia 131.482
lfoot -34.1636 -20.7488
ltoes -6.86947
669
root 8.53735 8.21007 28.5639 -505.636 -113.528 -560.973
lowerback 37.5029 3.15053 0.751913
upperback 2.88041 3.97961 0.41912
thorax -15.4681 1.50828 -1.69042
lowerneck 24.3189 -7.47651 -31.1259
upperneck 4.31618 -19.7647 40.7517
head 5.24606 -12.8592 22.5815
rclavicle 1.82882e-014 3.18055e-014
rhumerus 36.0642 37.3053 -29.2914
rradius 80.1312
rwrist -2.23867
rhand -8.14226 -2.15784
rfingers 7.12502
rthumb 17.7719 -31.3657
lclavicle 1.82882e-014 3.18055e-014
lhumerus -9.83589 4.81849 65.9563
lradius 63.3647
lwrist 42.6801
lhand -28.5952 -37.2327
lfingers 7.12502
lthumb -1.9608 -7.26198
rfemur -113.163 -25.726 49.4973
rtibia 126.771
rfoot -15.978 39.9757
rtoes 34.314
lfemur -105.062 29.0848 -49.7782
ltibia 133.174
lfoot -34.4104 -20.9682
ltoes -4.72566
670
root 8.62657 7.98733 28.5833 -505.528 -113.118 -562.04
lowerback 39.1606 3.30924 0.883149
upperback 3.03517 4.18253 0.398167
thorax -15.8875 1.5485 -1.92065
lowerneck 24.1604 -7.60622 -30.7996
upperneck 4.07201 -19.7664 40.9307
head 5.18941 -12.852 22.5778
rclavicle 1.74931e-014 -3.57812e-015
rhumerus 37.0183 37.092 -27.8345
rradius 78.3737
rwrist -1.54743
rhand -7.59264 -1.99882
rfingers 7.12502
rthumb 18.3008 -31.1579
lclavicle 1.74931e-014 -3.57812e-015
lhumerus -10.6381 5.8836 66.4118
lradius 61.3297
lwrist 43.5133
lhand -29.5085 -37.5011
lfingers 7.12502
lthumb -2.84278 -7.5403
rfemur -114.841 -26.554 50.8627
rtibia 128.211
rfoot -16.6407 39.1856
rtoes 33.0735
lfemur -106.232 30.0443 -50.9286
ltibia 134.762
lfoot -34.6738 -21.2171
ltoes -2.10439
671
root 8.71531 7.7629 28.6047 -505.495 -112.739 -563.024
lowerback 40.7348 3.42688 0.948981
upperback 3.17857 4.31202 0.408826
thorax -16.272 1.56181 -2.0461
lowerneck 23.9643 -7.67465 -30.6038
upperneck 3.87838 -19.7259 41.0916
head 5.15122 -12.8246 22.6109
rclavicle 3.57812e-014 -3.1408e-014
rhumerus 38.0512 36.9833 -26.334
rradius 76.6011
rwrist -1.00566
rhand -7.08501 -1.94512
rfingers 7.12502
rthumb 18.7891 -31.0577
lclavicle 3.57812e-014 -3.1408e-014
lhumerus -11.5967 7.21766 66.7958
lradius 59.218
lwrist 44.1966
lhand -30.5501 -37.7533
lfingers 7.12502
lthumb -3.84872 -7.80833
rfemur -116.642 -27.4064 52.2549
rtibia 129.64
rfoot -17.2341 38.3983
rtoes 31.7259
lfemur -107.391 30.9322 -52.1399
ltibia 136.307
lfoot -34.834 -21.6223
ltoes 1.42797
672
root 8.80364 7.53172 28.6289 -505.41 -112.382 -563.971
lowerback 42.0998 3.49797 0.952508
upperback 3.31433 4.3641 0.455439
thorax -16.5793 1.55078 -2.05507
lowerneck 23.7128 -7.67411 -30.5621
upperneck 3.74134 -19.6352 41.2267
head 5.13483 -12.7705 22.6821
rclavicle 5.725e-014 9.54166e-015
rhumerus 39.2319 36.981 -24.7447
rradius 74.8121
rwrist -0.651361
rhand -6.63968 -1.99468
rfingers 7.12502
rthumb 19.2173 -31.0652
lclavicle 5.725e-014 9.54166e-015
lhumerus -12.7059 8.81001 67.0692
lradius 57.0288
lwrist 44.7441
lhand -31.6608 -37.9647
lfingers 7.12502
lthumb -4.92123 -8.04185
rfemur -118.689 -28.1669 53.685
rtibia 131.08
rfoot -17.6813 37.663
rtoes 30.3124
lfemur -108.663 31.5605 -53.4457
ltibia 137.845
lfoot -34.9032 -21.8876
ltoes 5.01824
673
root 8.88964 7.28896 28.6548 -505.148 -112.043 -564.974
lowerback 43.1936 3.53459 0.884815
upperback 3.44513 4.35274 0.551091
thorax -16.7955 1.52466 -1.93184
lowerneck 23.3984 -7.59777 -30.6983
upperneck 3.67199 -19.4911 41.3313
head 5.14586 -12.6873 22.7974
rclavicle 3.61788e-014 -2.38542e-014
rhumerus 40.6065 37.0882 -23.0336
rradius 73.0018
rwrist -0.513875
rhand -6.25286 -2.15496
rfingers 7.12502
rthumb 19.5893 -31.188
lclavicle 3.61788e-014 -2.38542e-014
lhumerus -13.9665 10.616 67.2082
lradius 54.755
lwrist 45.2445
lhand -32.819 -38.2213
lfingers 7.12502
lthumb -6.0395 -8.32742
rfemur -121.013 -28.7092 55.1078
rtibia 132.562
rfoot -17.8481 37.016
rtoes 29.0076
lfemur -110.187 31.9069 -54.8762
ltibia 139.44
lfoot -34.835 -21.9788
ltoes 8.53882
674
root 8.97351 7.0367 28.683 -504.645 -111.717 -566.107
lowerback 44.0205 3.54666 0.799851
upperback 3.57673 4.30819 0.660738
thorax -16.9163 1.49213 -1.7582
lowerneck 23.0525 -7.47723 -30.9269
upperneck 3.6386 -19.3124 41.4248
head 5.16858 -12.5868 22.9432
rclavicle -1.31198e-014 -1.55052e-014
rhumerus 42.0796 37.2545 -21.2732
rradius 71.159
rwrist -0.545449
rhand -5.97596 -2.3871
rfingers 7.12502
rthumb 19.8555 -31.3929
lclavicle -1.31198e-014 -1.55052e-014
lhumerus -15.3118 12.5061 67.1766
lradius 52.3854
lwrist 45.7494
lhand -33.9397 -38.492
lfingers 7.12502
lthumb -7.12135 -8.63179
rfemur -123.542 -28.9747 56.4841
rtibia 134.058
rfoot -17.7781 36.4232
rtoes 27.6697
lfemur -111.953 31.9142 -56.4104
ltibia 141.084
lfoot -34.6192 -21.742
ltoes 11.5032
675
root 9.05503 6.77513 28.7137 -503.788 -111.411 -567.475
lowerback 44.5644 3.54064 0.76439
upperback 3.71185 4.26638 0.757014
thorax -16.9322 1.46352 -1.61758
lowerneck 22.7043 -7.34683 -31.1561
upperneck 3.60541 -19.1188 41.5195
head 5.1845 -12.4794 23.0962
rclavicle 1.98785e-015 -9.14409e-015
rhumerus 43.5534 37.4296 -19.5285
rradius 69.2861
rwrist -0.778059
rhand -5.71578 -2.73805
rfingers 7.12502
rthumb 20.1056 -31.7177
lclavicle 1.98785e-015 -9.14409e-015
lhumerus -16.6754 14.3667 66.9633
lradius 49.9002
lwrist 46.1864
lhand -34.9614 -38.6541
lfingers 7.12502
lthumb -8.10756 -8.82966
rfemur -126.232 -28.8725 57.7772
rtibia 135.555
rfoot -17.4815 35.7953
rtoes 26.1954
lfemur -114.003 31.4515 -57.9757
ltibia 142.795
lfoot -34.189 -21.0719
ltoes 13.7081
